# xmcd
#
# Track frame offsets: 
#        150
#        10120
#        24145
#        32645
#        43270
#        56807
#        69582
#        81332
#        94882
#        106875
#        116907
#        126695
#        136622
#        148350
#        158057
#        169310
#        181480
#        190837
#
# Disc length: 2664 seconds
#
# Revision: 3
# Processed by: cddbd v1.5.2PL0 Copyright (c) Steve Scherf et al.
# Submitted via: ExactAudioCopy v0.99pb1
#
DISCID=040a6612
DTITLE=Jean-Pier Bernac Musette Ensemble - A Taste of France [Disc 1]
DYEAR=1992
DGENRE=Folk
TTITLE0=Mademoisell de Paris
TTITLE1=La Vie en Rose
TTITLE2=Paris Canaille
TTITLE3=Moulin Rouge
TTITLE4=Under Paris Skies
TTITLE5=Commi Ci, Comme Ca
TTITLE6=Domino
TTITLE7=C'est Si Bon
TTITLE8=The Poor People Of Paris
TTITLE9=Mon Paris
TTITLE10=La Seine
TTITLE11=I Love Paris
TTITLE12=La Mer
TTITLE13=April In Paris
TTITLE14=Pigalle
TTITLE15=At Last! At Last!
TTITLE16=Sous Les Ponts De Paris
TTITLE17=Milord
EXTD=Authenic Music of the Country
EXTT0=
EXTT1=
EXTT2=
EXTT3=
EXTT4=
EXTT5=
EXTT6=
EXTT7=
EXTT8=
EXTT9=
EXTT10=
EXTT11=
EXTT12=
EXTT13=
EXTT14=
EXTT15=
EXTT16=
EXTT17=
PLAYORDER=
